<?xml version="1.0" encoding="utf-8"?>
<!-- Generator: Adobe Illustrator 19.2.1, SVG Export Plug-In . SVG Version: 6.00 Build 0)  -->
<svg version="1.1" id="back-arrow" xmlns="http://www.w3.org/2000/svg" xmlns:xlink="http://www.w3.org/1999/xlink" x="0px" y="0px"
	 viewBox="0 0 50 100" style="enable-background:new 0 0 50 100;" xml:space="preserve">
<style type="text/css">
	.st0{fill:#CCCCCC;}
	.st1{fill:#FFFFFF;}
</style>
<path class="st0" d="M32.2,18.9L32.2,18.9L32.2,18.9L32.2,18.9H14.4l3.4-3.2l0,0c0.6-0.6,0.6-1.5,0-2.2c-0.6-0.6-1.5-0.6-2.2-0.1
	l0,0l-6.3,5.9l0,0c0,0,0,0,0,0c-0.1,0.1-0.1,0.1-0.2,0.2l0,0c-0.1,0.1-0.1,0.2-0.1,0.3c0,0,0,0,0,0C9.1,19.9,9,20,9,20.1
	c0,0,0,0.1,0,0.1c0,0.1,0,0.1,0,0.2c0,0.1,0,0.1,0,0.2c0,0,0,0.1,0,0.1c0,0.1,0,0.2,0.1,0.2c0,0,0,0,0,0c0.1,0.2,0.2,0.4,0.3,0.5
	l0,0l0,0c0,0,0,0,0,0c0,0,0,0,0,0l5.9,6.2l0,0c0.6,0.6,1.5,0.6,2.2,0c0.6-0.6,0.6-1.5,0.1-2.2l0,0L14.2,22H32h0h0.1
	c3.3,0.1,5.8,2.8,5.7,6.1c-0.1,3.3-2.8,5.8-6.1,5.7c0,0-9.9,0-9.9,0v0c-0.8,0-1.5,0.7-1.5,1.5c0,0.8,0.6,1.5,1.5,1.6l0,0
	c0,0,9.8,0,9.9,0c5,0.1,9.1-3.8,9.3-8.8C41.1,23.2,37.2,19.1,32.2,18.9z"/>
<path class="st1" d="M32.2,68.9L32.2,68.9L32.2,68.9L32.2,68.9H14.4l3.4-3.2l0,0c0.6-0.6,0.6-1.5,0-2.2c-0.6-0.6-1.5-0.6-2.2-0.1
	l0,0l-6.3,5.9l0,0c0,0,0,0,0,0c-0.1,0.1-0.1,0.1-0.2,0.2l0,0c-0.1,0.1-0.1,0.2-0.1,0.3c0,0,0,0,0,0C9.1,69.9,9,70,9,70.1
	c0,0,0,0.1,0,0.1c0,0.1,0,0.1,0,0.2c0,0.1,0,0.1,0,0.2c0,0,0,0.1,0,0.1c0,0.1,0,0.2,0.1,0.2c0,0,0,0,0,0c0.1,0.2,0.2,0.4,0.3,0.5
	l0,0l0,0c0,0,0,0,0,0c0,0,0,0,0,0l5.9,6.2l0,0c0.6,0.6,1.5,0.6,2.2,0c0.6-0.6,0.6-1.5,0.1-2.2l0,0L14.2,72H32h0h0.1
	c3.3,0.1,5.8,2.8,5.7,6.1c-0.1,3.3-2.8,5.8-6.1,5.7c0,0-9.9,0-9.9,0v0c-0.8,0-1.5,0.7-1.5,1.5c0,0.8,0.6,1.5,1.5,1.6l0,0
	c0,0,9.8,0,9.9,0c5,0.1,9.1-3.8,9.3-8.8C41.1,73.2,37.2,69.1,32.2,68.9z"/>
</svg>
